<?xml version="1.0" encoding="iso-8859-1"?>
<!-- Generator: Adobe Illustrator 19.0.0, SVG Export Plug-In . SVG Version: 6.00 Build 0)  -->
<svg version="1.1" id="Layer_1" xmlns="http://www.w3.org/2000/svg" xmlns:xlink="http://www.w3.org/1999/xlink" x="0px" y="0px"
	 viewBox="0 0 512.001 512.001" style="enable-background:new 0 0 512.001 512.001;" xml:space="preserve">
<path style="fill:#FFC850;" d="M45.714,512H27.429c-5.049,0-9.143-4.094-9.143-9.143V73.143c0-10.099,8.186-18.286,18.286-18.286
	l0,0c10.099,0,18.286,8.186,18.286,18.286v429.714C54.857,507.907,50.763,512,45.714,512z"/>
<path style="fill:#E1A546;" d="M36.571,502.857V73.143c0-6.752,3.701-12.582,9.143-15.75c-2.698-1.57-5.795-2.536-9.143-2.536
	c-10.098,0-18.286,8.186-18.286,18.286v429.714c0,5.049,4.094,9.143,9.143,9.143h18.286C40.665,512,36.571,507.907,36.571,502.857z"
	/>
<path style="fill:#7DF5A5;" d="M502.848,320H9.143C4.094,320,0,315.907,0,310.857V109.715c0-5.049,4.094-9.143,9.143-9.143h493.705
	c6.525,0,10.949,6.637,8.44,12.659l-40.44,97.055l40.44,97.055C513.797,313.363,509.371,320,502.848,320z"/>
<circle style="fill:#FFC850;" cx="36.571" cy="27.429" r="27.429"/>
<path style="fill:#64DCA0;" d="M73.143,320h-64C4.094,320,0,315.907,0,310.857V109.715c0-5.049,4.094-9.143,9.143-9.143h64
	c5.049,0,9.143,4.094,9.143,9.143v201.143C82.286,315.907,78.192,320,73.143,320z"/>
<g>
	<path style="fill:#FFFFFF;" d="M73.143,146.286H54.857c-5.054,0-9.143,4.094-9.143,9.143v109.714c0,5.049,4.089,9.143,9.143,9.143
		S64,270.192,64,265.143v-27.429h9.143c25.206,0,45.714-20.509,45.714-45.714S98.349,146.286,73.143,146.286z M73.143,219.429H64
		v-54.857h9.143c15.125,0,27.429,12.304,27.429,27.429S88.267,219.429,73.143,219.429z"/>
	<path style="fill:#FFFFFF;" d="M182.857,164.572c5.054,0,9.143-4.094,9.143-9.143c0-5.049-4.089-9.143-9.143-9.143h-45.714
		c-5.054,0-9.143,4.094-9.143,9.143v109.714c0,5.049,4.089,9.143,9.143,9.143h45.714c5.054,0,9.143-4.094,9.143-9.143
		c0-5.049-4.089-9.143-9.143-9.143h-36.571v-36.571h18.286c5.054,0,9.143-4.094,9.143-9.143c0-5.049-4.089-9.143-9.143-9.143
		h-18.286v-36.571H182.857z"/>
	<path style="fill:#FFFFFF;" d="M429.714,256h-36.571v-36.571h18.286c5.054,0,9.143-4.094,9.143-9.143
		c0-5.049-4.089-9.143-9.143-9.143h-18.286v-36.571h36.571c5.054,0,9.143-4.094,9.143-9.143c0-5.049-4.089-9.143-9.143-9.143H384
		c-5.054,0-9.143,4.094-9.143,9.143v109.714c0,5.049,4.089,9.143,9.143,9.143h45.714c5.054,0,9.143-4.094,9.143-9.143
		C438.857,260.094,434.768,256,429.714,256z"/>
	<path style="fill:#FFFFFF;" d="M255.723,153.211c-1.018-4.067-4.67-6.925-8.866-6.925h-9.143c-4.197,0-7.848,2.857-8.866,6.925
		l-27.429,109.714c-1.232,4.902,1.75,9.866,6.651,11.089c4.875,1.218,9.857-1.763,11.08-6.651l7.414-29.648h31.442l7.413,29.647
		c1.035,4.152,4.759,6.929,8.857,6.925c0.733,0,1.482-0.085,2.223-0.272c4.902-1.223,7.883-6.187,6.651-11.089L255.723,153.211z
		 M231.137,219.429l11.149-44.59l11.149,44.59H231.137z"/>
	<path style="fill:#FFFFFF;" d="M329.143,164.572c7.741,0,14.679,4.906,17.25,12.21c1.688,4.763,6.937,7.263,11.661,5.585
		c4.768-1.679,7.267-6.902,5.59-11.665c-5.152-14.603-19.009-24.416-34.501-24.416c-20.169,0-36.571,16.406-36.571,36.571v54.857
		c0,20.166,16.402,36.571,36.571,36.571c15.464,0,29.33-9.799,34.482-24.379c1.688-4.759-0.803-9.986-5.571-11.67
		c-4.723-1.696-9.982,0.817-11.661,5.571c-2.581,7.29-9.518,12.192-17.25,12.192c-10.08,0-18.286-8.201-18.286-18.286v-54.857
		C310.857,172.773,319.063,164.572,329.143,164.572z"/>
</g>
<path style="fill:#E1A546;" d="M50.286,41.143c-15.149,0-27.429-12.28-27.429-27.429c0-4.019,0.912-7.809,2.466-11.248
	C15.799,6.767,9.143,16.3,9.143,27.429c0,15.149,12.28,27.429,27.429,27.429c11.129,0,20.662-6.656,24.962-16.181
	C58.095,40.231,54.305,41.143,50.286,41.143z"/>
<g>
</g>
<g>
</g>
<g>
</g>
<g>
</g>
<g>
</g>
<g>
</g>
<g>
</g>
<g>
</g>
<g>
</g>
<g>
</g>
<g>
</g>
<g>
</g>
<g>
</g>
<g>
</g>
<g>
</g>
</svg>
